<svg id="Layer_1" data-name="Layer 1" xmlns="http://www.w3.org/2000/svg" viewBox="0 0 512 512"><defs><style>.cls-1{fill:#d1e1e8;}.cls-2{fill:#141f38;}.cls-3{fill:#ff5f6e;}</style></defs><title>newspaper-2-filled</title><path class="cls-1" d="M466.05,85.33V472.62a32.83,32.83,0,0,1-32.82,32.82H131.28a32.83,32.83,0,0,1-32.82-32.82V39.38A32.83,32.83,0,0,1,131.28,6.56h256Z"/><path class="cls-2" d="M433.23,512H131.28A39.43,39.43,0,0,1,91.9,472.62V39.38A39.43,39.43,0,0,1,131.28,0H390l82.62,82.62v390A39.43,39.43,0,0,1,433.23,512ZM131.28,13.13A26.28,26.28,0,0,0,105,39.38V472.62a26.28,26.28,0,0,0,26.26,26.26H433.23a26.28,26.28,0,0,0,26.26-26.26V88.05L384.56,13.13Z"/><rect class="cls-3" x="177.23" y="374.15" width="78.77" height="52.51"/><path class="cls-2" d="M262.56,433.23h-91.9V367.59h91.9ZM183.79,420.1h65.64V380.72H183.79Z"/><polygon class="cls-1" points="466.05 85.33 387.28 85.33 387.28 6.56 466.05 85.33"/><path class="cls-2" d="M466.05,91.9H387.28a6.56,6.56,0,0,1-6.56-6.56V6.56a6.56,6.56,0,0,1,11.21-4.64l78.77,78.77a6.56,6.56,0,0,1-4.64,11.21ZM393.85,78.77H450.2L393.85,22.41Z"/><path class="cls-2" d="M295.38,91.9H177.23a6.56,6.56,0,1,1,0-13.13H295.38a6.56,6.56,0,1,1,0,13.13Z"/><path class="cls-2" d="M387.28,170.67H177.23a6.56,6.56,0,0,1,0-13.13H387.28a6.56,6.56,0,0,1,0,13.13Z"/><path class="cls-2" d="M256,223.18H177.23a6.56,6.56,0,1,1,0-13.13H256a6.56,6.56,0,1,1,0,13.13Z"/><path class="cls-2" d="M387.28,223.18H308.51a6.56,6.56,0,0,1,0-13.13h78.77a6.56,6.56,0,1,1,0,13.13Z"/><path class="cls-2" d="M256,275.69H177.23a6.56,6.56,0,1,1,0-13.13H256a6.56,6.56,0,1,1,0,13.13Z"/><path class="cls-2" d="M387.28,275.69H308.51a6.56,6.56,0,0,1,0-13.13h78.77a6.56,6.56,0,1,1,0,13.13Z"/><path class="cls-2" d="M387.28,328.21H177.23a6.56,6.56,0,1,1,0-13.13H387.28a6.56,6.56,0,1,1,0,13.13Z"/><path class="cls-2" d="M387.28,380.72H308.51a6.56,6.56,0,0,1,0-13.13h78.77a6.56,6.56,0,1,1,0,13.13Z"/><path class="cls-2" d="M387.28,433.23H308.51a6.56,6.56,0,0,1,0-13.13h78.77a6.56,6.56,0,1,1,0,13.13Z"/><path class="cls-1" d="M98.46,472.62V39.38A32.83,32.83,0,0,1,131.28,6.56H78.77A32.83,32.83,0,0,0,45.95,39.38V472.62a32.83,32.83,0,0,0,32.82,32.82h52.51A32.83,32.83,0,0,1,98.46,472.62Z"/><path class="cls-2" d="M131.28,512H78.77a39.43,39.43,0,0,1-39.38-39.38V39.38A39.43,39.43,0,0,1,78.77,0h52.51V13.13A26.28,26.28,0,0,0,105,39.38V472.62a26.28,26.28,0,0,0,26.26,26.26ZM78.77,13.13A26.28,26.28,0,0,0,52.51,39.38V472.62a26.28,26.28,0,0,0,26.26,26.26h23.18A39.25,39.25,0,0,1,91.9,472.62V39.38a39.25,39.25,0,0,1,10.05-26.26Z"/></svg>