<svg xmlns="http://www.w3.org/2000/svg" xmlns:xlink="http://www.w3.org/1999/xlink" viewBox="0 0 512 512"><defs><linearGradient id="linear-gradient" x1="2.5" y1="222.95" x2="443.39" y2="222.95" gradientUnits="userSpaceOnUse"><stop offset="0" stop-color="#fff"/><stop offset="1" stop-color="#d0d3d4"/></linearGradient><linearGradient id="linear-gradient-2" x1="13.52" y1="222.95" x2="432.37" y2="222.95" gradientUnits="userSpaceOnUse"><stop offset="0" stop-color="#d0d3d4"/><stop offset="1" stop-color="#fff"/></linearGradient></defs><title>ringing-telephone-outline</title><g style="isolation:isolate"><g id="Layer_1" data-name="Layer 1"><g style="mix-blend-mode:multiply"><path d="M289.05,509.5c-121.55,0-220.45-98.89-220.45-220.45S167.5,68.61,289.05,68.61,509.5,167.5,509.5,289.05,410.61,509.5,289.05,509.5Z" fill="#fff" opacity="0"/><path d="M285.91,506.22c-121.48,0-220.32-98.83-220.32-220.31S164.42,65.59,285.91,65.59s220.31,98.83,220.31,220.32S407.39,506.22,285.91,506.22Z" fill="#f9f9f9" opacity="0.05"/><path d="M282.76,502.94c-121.41,0-220.18-98.77-220.18-220.18S161.35,62.57,282.76,62.57s220.18,98.77,220.18,220.18S404.16,502.94,282.76,502.94Z" fill="#f3f3f3" opacity="0.1"/><path d="M279.61,499.66c-121.34,0-220.05-98.71-220.05-220.05S158.27,59.56,279.61,59.56s220.05,98.71,220.05,220.05S400.94,499.66,279.61,499.66Z" fill="#ededee" opacity="0.14"/><path d="M276.46,496.38c-121.27,0-219.92-98.66-219.92-219.92S155.2,56.54,276.46,56.54,496.38,155.2,496.38,276.46,397.72,496.38,276.46,496.38Z" fill="#e7e7e8" opacity="0.19"/><path d="M273.31,493.1c-121.19,0-219.79-98.6-219.79-219.79S152.12,53.52,273.31,53.52,493.1,152.12,493.1,273.31,394.5,493.1,273.31,493.1Z" fill="#e1e1e2" opacity="0.24"/><path d="M270.17,489.82C149,489.82,50.51,391.29,50.51,270.17S149,50.51,270.17,50.51,489.82,149,489.82,270.17,391.28,489.82,270.17,489.82Z" fill="#dbdbdc" opacity="0.29"/><path d="M267,486.55C146,486.55,47.49,388.07,47.49,267S146,47.49,267,47.49,486.55,146,486.55,267,388.06,486.55,267,486.55Z" fill="#d5d5d6" opacity="0.33"/><path d="M263.87,483.27c-121,0-219.4-98.42-219.4-219.4s98.42-219.4,219.4-219.4,219.4,98.42,219.4,219.4S384.84,483.27,263.87,483.27Z" fill="#cfcfd1" opacity="0.38"/><path d="M260.72,480c-120.9,0-219.27-98.36-219.27-219.27S139.82,41.46,260.72,41.46,480,139.82,480,260.72,381.62,480,260.72,480Z" fill="#c9c9cb" opacity="0.43"/><path d="M257.57,476.71c-120.83,0-219.13-98.3-219.13-219.13S136.74,38.44,257.57,38.44s219.13,98.3,219.13,219.13S378.4,476.71,257.57,476.71Z" fill="#c3c3c5" opacity="0.48"/><path d="M254.43,473.43c-120.76,0-219-98.24-219-219s98.24-219,219-219,219,98.24,219,219S375.18,473.43,254.43,473.43Z" fill="#bcbebf" opacity="0.52"/><path d="M251.28,470.15C130.59,470.15,32.41,372,32.41,251.28S130.59,32.41,251.28,32.41s218.87,98.19,218.87,218.87S372,470.15,251.28,470.15Z" fill="#b6b8b9" opacity="0.57"/><path d="M248.13,466.87c-120.61,0-218.74-98.13-218.74-218.74S127.52,29.39,248.13,29.39s218.74,98.13,218.74,218.74S368.74,466.87,248.13,466.87Z" fill="#b0b2b3" opacity="0.62"/><path d="M245,463.59C124.44,463.59,26.37,365.52,26.37,245S124.44,26.37,245,26.37,463.59,124.44,463.59,245,365.52,463.59,245,463.59Z" fill="#aaacae" opacity="0.67"/><path d="M241.83,460.31c-120.47,0-218.48-98-218.48-218.48s98-218.48,218.48-218.48,218.48,98,218.48,218.48S362.3,460.31,241.83,460.31Z" fill="#a4a6a8" opacity="0.71"/><path d="M238.69,457c-120.4,0-218.35-97.95-218.35-218.35S118.29,20.34,238.69,20.34,457,118.29,457,238.69,359.08,457,238.69,457Z" fill="#9ea0a2" opacity="0.76"/><path d="M235.54,453.75c-120.32,0-218.22-97.89-218.22-218.22S115.21,17.32,235.54,17.32s218.22,97.89,218.22,218.22S355.86,453.75,235.54,453.75Z" fill="#989a9c" opacity="0.81"/><path d="M232.39,450.48c-120.25,0-218.08-97.83-218.08-218.08S112.14,14.31,232.39,14.31s218.08,97.83,218.08,218.08S352.64,450.48,232.39,450.48Z" fill="#929496" opacity="0.86"/><path d="M229.24,447.2c-120.18,0-218-97.77-218-218s97.77-218,218-218,218,97.77,218,218S349.42,447.2,229.24,447.2Z" fill="#8c8e91" opacity="0.9"/><path d="M226.09,443.92C106,443.92,8.27,346.2,8.27,226.09S106,8.27,226.09,8.27,443.92,106,443.92,226.09,346.2,443.92,226.09,443.92Z" fill="#86888b" opacity="0.95"/><path d="M222.95,440.64c-120,0-217.69-97.66-217.69-217.69S102.91,5.26,222.95,5.26s217.69,97.66,217.69,217.69S343,440.64,222.95,440.64Z" fill="#808285"/></g><path d="M222.95,443.39C101.39,443.39,2.5,344.5,2.5,222.95S101.39,2.5,222.95,2.5s220.45,98.89,220.45,220.45S344.5,443.39,222.95,443.39Z" fill="url(#linear-gradient)"/><path d="M222.95,432.37c-115.48,0-209.42-93.95-209.42-209.42S107.47,13.52,222.95,13.52s209.42,93.95,209.42,209.42S338.42,432.37,222.95,432.37Z" fill="url(#linear-gradient-2)"/><path d="M227.4,126.12H177c-33.66,0-42.53,34.27-42.53,34.27a297,297,0,0,0-7.89,67.55,288.73,288.73,0,0,0,7.89,66.6s8.87,33,42.53,33H227.4c4.64,0,7.72-2.19,7.72-6.83V270.28c0-4.64-3.08-10.51-7.72-10.51H195.94a268,268,0,0,1,0-67.76H227.4c4.64,0,7.72-1.11,7.72-5.75V135.84C235.12,131.2,232,126.12,227.4,126.12ZM201.24,276.7h16.94v33.88H201.24Zm-7.53-99.76H181.43A274.3,274.3,0,0,0,177,226.82a290.36,290.36,0,0,0,4.45,49.88h12.28v33.88H177c-20.3,0-27.09-24.35-27.09-24.35a270.61,270.61,0,0,1-6.52-58.39,278.06,278.06,0,0,1,6.52-59.19s6.79-25.58,27.09-25.58h16.73Zm24.47,0H201.24V143.06h16.94Z" fill="#fff"/><path d="M301.74,227.64c0-22.73-10.15-41.66-25.21-47.11v12.72c9.41,5,16.8,18.46,16.8,34.39S285.94,257,276.53,262v12.72C291.59,269.31,301.74,250.37,301.74,227.64Z" fill="#fff"/><path d="M276.53,143.15v12.33c24.47,5.83,42,35.88,42,72.17S301,294,276.53,299.81v12.33c28.23-5.94,50.41-41.46,50.41-84.5S304.77,149.08,276.53,143.15Z" fill="#fff"/><path d="M223.64,122.36H173.22c-33.66,0-42.53,34.27-42.53,34.27a297,297,0,0,0-7.89,67.55,288.73,288.73,0,0,0,7.89,66.6s8.87,33,42.53,33h50.41c4.64,0,7.72-2.19,7.72-6.83V266.51c0-4.64-3.08-10.51-7.72-10.51H192.18a268,268,0,0,1,0-67.76h31.46c4.64,0,7.72-1.11,7.72-5.75V132.07C231.36,127.43,228.28,122.36,223.64,122.36ZM197.48,272.94h16.94v33.88H197.48Zm-7.53-99.76H177.67a274.3,274.3,0,0,0-4.45,49.88,290.36,290.36,0,0,0,4.45,49.88h12.28v33.88H173.22c-20.3,0-27.09-24.35-27.09-24.35a270.61,270.61,0,0,1-6.52-58.39,278.06,278.06,0,0,1,6.52-59.19s6.79-25.58,27.09-25.58h16.73Zm24.47,0H197.48V139.3h16.94Z" fill="#9b999f"/><path d="M298,223.88c0-22.73-10.15-41.66-25.21-47.11v12.72c9.41,5,16.8,18.46,16.8,34.39s-7.39,29.35-16.8,34.39V271C287.83,265.54,298,246.6,298,223.88Z" fill="#9b999f"/><path d="M272.77,139.38v12.33c24.47,5.83,42,35.88,42,72.17s-17.54,66.34-42,72.17v12.33c28.23-5.94,50.41-41.46,50.41-84.5S301,145.32,272.77,139.38Z" fill="#9b999f"/></g></g></svg>