<svg id="Layer_1" data-name="Layer 1" xmlns="http://www.w3.org/2000/svg" xmlns:xlink="http://www.w3.org/1999/xlink" viewBox="0 0 512 512"><defs><radialGradient id="GradientFill_1" cx="273.97" cy="228.3" r="285.66" gradientUnits="userSpaceOnUse"><stop offset="0" stop-color="#fff"/><stop offset="0.51" stop-color="#fbfbfb"/><stop offset="1" stop-color="#d0d2d3"/></radialGradient></defs><title>play</title><path d="M282.47,100.19,18.21,205.54c-14.71,5.88-22.36,23-15.89,37.08L94.72,454.5c5.88,14.72,22.37,21.78,36.49,15.89l233.65-93c27.66,18.83,51.2,30.61,87.69,28.24-25.3-10-39.44-21.77-57.68-40.6h1.17c14.13-5.89,21.78-23,15.89-37.09l-92.4-211.88C313.07,101.38,297.18,94.3,282.47,100.19Z" fill="#231f20" fill-rule="evenodd"/><path d="M283.64,107.25,28.21,202a26.86,26.86,0,0,0-16.48,34.72l83,204.81c5.88,14.13,20.6,21.78,34.72,16.48l226-83.57c25.31,18.83,47.67,30.61,83,29.43-24.13-10.6-37.08-21.78-54.15-40l1.18-.59a26.12,26.12,0,0,0,15.89-34.72l-83-204.81C313.07,109.61,297.77,102,283.64,107.25Z" fill="#839ca9" fill-rule="evenodd"/><path d="M389.59,40.16,71.17,99.6c-17.07,3.53-29.42,20.6-25.9,37.67l56.5,257.19c3.54,17.07,20,28.83,37.67,25.31l280.74-52.38C446.67,394.47,470.8,412.72,512,418c-25.9-17.07-39.43-32.37-55.33-57.68h1.18c17.07-3.53,29.42-20.6,25.9-37.67l-56.5-256.6C423.72,48.4,407.24,36.63,389.59,40.16Z" fill="#231f20" fill-rule="evenodd"/><path d="M389,48.4,83.54,97.25c-17.07,2.95-28.84,18.83-25.9,35.32l47.08,247.18c3.54,16.48,18.83,28.26,35.32,25.9L410.18,362.1c24.71,26.48,47.08,44.73,86.52,50.62-24.71-16.48-37.08-31.79-51.2-55.91l.59-.59A30.4,30.4,0,0,0,472,320.9L424.89,73.71C421.36,57.23,406.06,45.46,389,48.4Z" fill-rule="evenodd" fill="url(#GradientFill_1)"/><path d="M219.49,126.68l121.83,87.69,2.35,1.17-1.76,1.77L253.62,338.56l-2.94,4.71-1.18-5.89Q232.74,233.2,216,129l-1.18-5.29Z" fill="#231f20" fill-rule="evenodd"/></svg>